HIERARCHY
ROOT Hips
{
	OFFSET 0.00000 0.00000 0.00000
	CHANNELS 6 Xposition Yposition Zposition Zrotation Yrotation Xrotation 
	JOINT LHipJoint
	{
		OFFSET 0 0 0
		CHANNELS 3 Zrotation Yrotation Xrotation
		JOINT LeftUpLeg
		{
			OFFSET 1.58161 -1.81893 0.78828
			CHANNELS 3 Zrotation Yrotation Xrotation
			JOINT LeftLeg
			{
				OFFSET 2.53374 -6.96141 0.00000
				CHANNELS 3 Zrotation Yrotation Xrotation
				JOINT LeftFoot
				{
					OFFSET 2.63509 -7.23986 0.00000
					CHANNELS 3 Zrotation Yrotation Xrotation
					JOINT LeftToeBase
					{
						OFFSET 0.14115 -0.38781 2.05350
						CHANNELS 3 Zrotation Yrotation Xrotation
						End Site
						{
							OFFSET 0.00000 -0.00000 1.05543
						}
					}
				}
			}
		}
	}
	JOINT RHipJoint
	{
		OFFSET 0 0 0
		CHANNELS 3 Zrotation Yrotation Xrotation
		JOINT RightUpLeg
		{
			OFFSET -1.11138 -1.81893 0.78828
			CHANNELS 3 Zrotation Yrotation Xrotation
			JOINT RightLeg
			{
				OFFSET -2.58392 -7.09926 0.00000
				CHANNELS 3 Zrotation Yrotation Xrotation
				JOINT RightFoot
				{
					OFFSET -2.66423 -7.31992 0.00000
					CHANNELS 3 Zrotation Yrotation Xrotation
					JOINT RightToeBase
					{
						OFFSET -0.18831 -0.51739 2.12114
						CHANNELS 3 Zrotation Yrotation Xrotation
						End Site
						{
							OFFSET -0.00000 -0.00000 1.09845
						}
					}
				}
			}
		}
	}
	JOINT LowerBack
	{
		OFFSET 0 0 0
		CHANNELS 3 Zrotation Yrotation Xrotation
		JOINT Spine
		{
			OFFSET -0.01511 1.97958 -0.08829
			CHANNELS 3 Zrotation Yrotation Xrotation
			JOINT Spine1
			{
				OFFSET 0.08344 1.97334 -0.04330
				CHANNELS 3 Zrotation Yrotation Xrotation
				JOINT Neck
				{
					OFFSET 0 0 0
					CHANNELS 3 Zrotation Yrotation Xrotation
					JOINT Neck1
					{
						OFFSET 0.00559 1.76246 0.31246
						CHANNELS 3 Zrotation Yrotation Xrotation
						JOINT Head
						{
							OFFSET -0.07011 1.80354 -0.30524
							CHANNELS 3 Zrotation Yrotation Xrotation
							End Site
							{
								OFFSET -0.02385 1.83547 -0.13906
							}
						}
					}
				}
				JOINT LeftShoulder
				{
					OFFSET 0 0 0
					CHANNELS 3 Zrotation Yrotation Xrotation
					JOINT LeftArm
					{
						OFFSET 3.20667 1.30156 -0.60240
						CHANNELS 3 Zrotation Yrotation Xrotation
						JOINT LeftForeArm
						{
							OFFSET 4.95663 -0.00000 0.00000
							CHANNELS 3 Zrotation Yrotation Xrotation
							JOINT LeftHand
							{
								OFFSET 3.38177 -0.00000 0.00000
								CHANNELS 3 Zrotation Yrotation Xrotation
								JOINT LeftFingerBase
								{
									OFFSET 0 0 0
									CHANNELS 3 Zrotation Yrotation Xrotation
									JOINT LeftHandIndex1
									{
										OFFSET 0.66291 -0.00000 0.00000
										CHANNELS 3 Zrotation Yrotation Xrotation
										End Site
										{
											OFFSET 0.53445 -0.00000 0.00000
										}
									}
								}
								JOINT LThumb
								{
									OFFSET 0 0 0
									CHANNELS 3 Zrotation Yrotation Xrotation
									End Site
									{
										OFFSET 0.54261 -0.00000 0.54261
									}
								}
							}
						}
					}
				}
				JOINT RightShoulder
				{
					OFFSET 0 0 0
					CHANNELS 3 Zrotation Yrotation Xrotation
					JOINT RightArm
					{
						OFFSET -3.06877 1.34672 -0.60964
						CHANNELS 3 Zrotation Yrotation Xrotation
						JOINT RightForeArm
						{
							OFFSET -5.08365 -0.00000 0.00000
							CHANNELS 3 Zrotation Yrotation Xrotation
							JOINT RightHand
							{
								OFFSET -3.35984 -0.00000 0.00000
								CHANNELS 3 Zrotation Yrotation Xrotation
								JOINT RightFingerBase
								{
									OFFSET 0 0 0
									CHANNELS 3 Zrotation Yrotation Xrotation
									JOINT RightHandIndex1
									{
										OFFSET -0.82076 -0.00000 0.00000
										CHANNELS 3 Zrotation Yrotation Xrotation
										End Site
										{
											OFFSET -0.66172 -0.00000 0.00000
										}
									}
								}
								JOINT RThumb
								{
									OFFSET 0 0 0
									CHANNELS 3 Zrotation Yrotation Xrotation
									End Site
									{
										OFFSET -0.67182 -0.00000 0.67182
									}
								}
							}
						}
					}
				}
			}
		}
	}
}
MOTION
Frames: 11
Frame Time: .0083333
-5.9484 17.8000 3.1540 -9.2149 31.4398 2.9701 0.0000 0.0000 0.0000 6.0920 18.9731 -7.1437 3.9316 12.0688 35.9759 -0.0450 13.7285 9.0792 3.5048 -11.4706 -33.8840 0.0000 0.0000 0.0000 25.8998 28.5546 -19.5474 -2.7210 -10.2291 29.7217 2.5332 26.8195 9.8811 -3.7693 -11.8469 35.1924 -15.3660 -9.8857 1.3350 -3.6664 -13.4329 -1.9512 4.3248 -6.4783 -0.2714 3.0341 22.2947 -5.8260 -12.3080 32.3566 13.9922 -1.0364 14.7340 7.8208 -0.0000 0.0000 0.0000 160.5623 -41.6625 -170.1850 24.2771 -35.4560 -7.8667 -0.0000 -0.0000 0.0054 20.8185 -0.7614 -0.2895 -7.1250 0.0000 -0.0000 8.0596 -60.8001 176.8848 -0.0000 0.0000 0.0000 21.7604 40.4017 -33.3715 -128.0690 53.7452 -92.2761 0.0000 -0.0000 -1.8641 -65.6082 11.6867 -24.0709 7.1250 -0.0000 -0.0000 -24.0979 -5.1511 -24.1309
-5.9439 17.7931 3.1270 -9.2572 31.7408 2.9796 0.0000 0.0000 0.0000 6.0130 18.9672 -7.3868 3.9457 12.0878 36.0433 -0.0597 13.3729 8.6210 3.4954 -11.4568 -33.8365 0.0000 0.0000 0.0000 25.8025 28.2896 -19.6366 -2.6751 -10.1496 29.4626 2.5019 26.6660 10.0255 -3.8204 -11.9175 35.4406 -15.3226 -9.8570 1.4498 -3.6626 -13.4130 -1.9127 4.3279 -6.4687 -0.3054 3.1962 22.2172 -5.5930 -12.4424 32.2536 13.9658 -1.1248 14.6975 7.8153 0.0000 -0.0000 0.0000 160.9406 -41.6698 -170.8261 24.0738 -35.2422 -7.7491 -0.0000 -0.0000 0.1723 20.0310 -0.3911 -0.1426 -7.1250 0.0000 -0.0000 9.0516 -60.3967 176.5849 0.0000 -0.0000 0.0000 22.1360 40.5807 -33.2025 -127.6255 53.9094 -91.9181 0.0000 -0.0000 -2.2768 -65.3071 11.2640 -23.0165 7.1250 -0.0000 -0.0000 -24.0812 -6.1625 -23.6020
-5.9380 17.7992 3.0997 -9.3196 32.0621 2.9946 0.0000 0.0000 0.0000 5.9145 18.9370 -7.6242 3.9550 12.1003 36.0876 -0.0950 13.1105 7.9372 3.4362 -11.3698 -33.5374 0.0000 0.0000 0.0000 25.7141 28.2419 -19.6987 -2.6392 -10.0868 29.2582 2.4892 26.6181 9.4452 -3.5438 -11.5273 34.0796 -15.2673 -9.8668 1.6104 -3.6277 -13.4587 -1.9231 4.3655 -6.4858 -0.4007 3.2709 22.2291 -5.3950 -12.4957 32.2630 13.9199 -1.1682 14.7164 7.7897 0.0000 -0.0000 0.0000 161.1953 -41.8353 -171.1930 23.8364 -34.9908 -7.6126 -0.0000 -0.0000 0.0144 19.3699 0.0143 0.0050 -7.1250 0.0000 -0.0000 9.8394 -59.9636 176.3860 0.0000 -0.0000 0.0000 22.5643 40.8888 -33.0316 -127.1916 54.0672 -91.5671 0.0000 -0.0000 -2.7653 -64.6688 10.7181 -21.4491 7.1250 -0.0000 -0.0000 -23.9330 -7.6236 -22.6797
-5.9326 17.8019 3.0703 -9.4332 32.3864 3.0055 0.0000 0.0000 0.0000 5.8389 18.8718 -7.8415 3.9546 12.0997 36.0858 -0.1514 12.9154 6.9521 3.2488 -11.0874 -32.5751 0.0000 0.0000 0.0000 25.6595 28.2010 -19.8514 -2.6159 -10.0457 29.1248 2.4707 26.5459 8.9704 -3.2928 -11.1545 32.8029 -15.1889 -9.8716 1.6775 -3.5567 -13.4683 -1.8440 4.4019 -6.4995 -0.3503 3.1448 22.2706 -5.4862 -12.3863 32.3129 13.9509 -1.1129 14.7374 7.7797 -0.0000 0.0000 0.0000 161.2766 -42.0337 -171.2268 23.6340 -34.7748 -7.4968 -0.0000 0.0000 -0.3802 18.5896 0.3579 0.1204 -7.1250 0.0000 -0.0000 10.7932 -59.5982 176.1253 -0.0000 0.0000 0.0000 22.8942 41.2429 -32.9286 -126.8932 54.1742 -91.3253 0.0000 -0.0000 -4.2427 -64.3201 11.3680 -22.2902 7.1250 -0.0000 -0.0000 -23.5380 -6.6504 -22.7143
-5.9306 17.8004 3.0398 -9.6453 32.7309 2.9678 0.0000 0.0000 0.0000 5.8508 18.9236 -8.1306 3.9526 12.0971 36.0762 -0.1520 12.2790 6.3603 3.3317 -11.2136 -33.0036 0.0000 0.0000 0.0000 25.6234 28.2403 -20.0160 -2.6006 -10.0186 29.0371 2.3958 26.1721 8.9761 -3.3187 -11.1940 32.9369 -15.0449 -9.8330 1.6808 -3.4655 -13.3982 -1.6849 4.4119 -6.4854 -0.2020 3.0049 22.2203 -5.5204 -12.3384 32.2297 13.9079 -1.1020 14.7006 7.7342 0.0000 -0.0000 0.0000 161.4428 -42.1002 -171.3448 23.4182 -34.5430 -7.3741 -0.0000 0.0000 -0.3577 18.1923 0.6001 0.1972 -7.1250 0.0000 -0.0000 11.2486 -59.3441 176.0278 0.0000 -0.0000 0.0000 23.2436 41.4959 -32.6957 -126.4669 54.3247 -90.9794 0.0000 -0.0000 -5.8834 -64.7840 12.4842 -24.6577 7.1250 -0.0000 -0.0000 -23.4226 -4.2901 -23.7236
-5.9294 17.8023 3.0058 -9.8222 33.1336 2.9534 0.0000 0.0000 0.0000 5.7930 19.0359 -8.5377 3.9569 12.1028 36.0965 -0.1315 11.5941 6.0713 3.5937 -11.5992 -34.3285 0.0000 0.0000 0.0000 25.5231 28.2227 -20.2231 -2.5873 -9.9949 28.9602 2.3371 25.8805 8.8311 -3.2453 -11.0819 32.5565 -14.9030 -9.7881 1.8206 -3.3863 -13.3523 -1.5741 4.4416 -6.4725 -0.1798 2.9918 22.1647 -5.5795 -12.4107 32.1654 13.9029 -1.1208 14.6621 7.7482 0.0000 -0.0000 0.0000 161.6980 -42.1081 -171.6237 23.1755 -34.2802 -7.2369 -0.0000 0.0000 -0.0700 17.9224 0.9769 0.3159 -7.1250 0.0000 -0.0000 11.4820 -58.9538 176.0516 0.0000 -0.0000 0.0000 23.6646 41.6691 -32.2944 -125.8789 54.5282 -90.5011 0.0000 -0.0000 -7.2862 -65.4104 13.5307 -27.0794 7.1250 -0.0000 -0.0000 -23.4232 -1.9294 -24.8179
-5.9276 17.8040 2.9677 -9.9711 33.5757 2.9544 0.0000 0.0000 0.0000 5.6917 19.1153 -8.9507 3.9576 12.1038 36.1001 -0.1731 11.6144 5.3520 3.5076 -11.4746 -33.8978 0.0000 0.0000 0.0000 25.4055 28.0843 -20.5020 -2.5756 -9.9742 28.8931 2.3232 25.8308 8.3997 -2.9910 -10.6804 31.2095 -14.8260 -9.8037 2.0813 -3.2677 -13.4249 -1.5930 4.5711 -6.5012 -0.3191 3.0139 22.1934 -5.5163 -12.4242 32.2251 13.9941 -1.1194 14.6871 7.7793 -0.0000 0.0000 0.0000 161.9654 -42.2971 -172.1074 22.9075 -33.9876 -7.0865 -0.0000 0.0000 -0.2797 17.1083 1.4493 0.4460 -7.1250 0.0000 -0.0000 12.3970 -58.4684 175.8759 -0.0000 0.0000 0.0000 24.1908 41.9662 -31.6948 -125.2911 54.7267 -90.0218 0.0000 -0.0000 -8.3388 -65.6719 13.9676 -28.0971 7.1250 -0.0000 -0.0000 -23.4263 -0.9398 -25.2645
-5.9277 17.8044 2.9276 -10.2456 34.0643 2.8782 0.0000 0.0000 0.0000 5.7131 19.1918 -9.3517 3.9496 12.0930 36.0617 -0.2279 11.6768 4.3570 3.3150 -11.1884 -32.9178 0.0000 0.0000 0.0000 25.3802 28.0507 -20.7480 -2.5636 -9.9526 28.8232 2.2802 25.6392 7.8908 -2.7588 -10.2940 29.9340 -14.7108 -9.8461 2.3246 -3.0686 -13.5236 -1.5706 4.7524 -6.5508 -0.3880 2.8583 22.2067 -5.5020 -12.3984 32.2542 14.0213 -1.0988 14.6970 7.7602 0.0000 -0.0000 0.0000 162.2241 -42.5817 -172.6763 22.6702 -33.7262 -6.9543 -0.0000 0.0000 -0.5779 16.1794 1.9911 0.5776 -7.1250 0.0000 -0.0000 13.4167 -57.9187 175.7072 0.0000 -0.0000 0.0000 24.6305 42.4277 -31.2871 -124.7791 54.8958 -89.6034 0.0000 -0.0000 -8.8032 -65.2633 13.0954 -26.1868 7.1250 -0.0000 -0.0000 -23.4801 -2.8259 -24.4803
-5.9269 17.8096 2.8885 -10.4179 34.6735 2.8180 0.0000 0.0000 0.0000 5.6211 19.2656 -9.7500 3.9317 12.0689 35.9763 -0.2429 11.3237 3.5962 3.3064 -11.1753 -32.8733 0.0000 0.0000 0.0000 25.2535 27.8507 -20.9958 -2.5520 -9.9319 28.7565 2.2277 25.3909 7.4989 -2.6286 -10.0680 29.1973 -14.6202 -9.8074 2.5337 -2.9136 -13.4858 -1.3444 4.8802 -6.5552 -0.2499 2.4400 22.1002 -6.1480 -12.2097 32.1628 14.2811 -0.9436 14.5972 7.8476 0.0000 0.0000 0.0000 162.3022 -42.5524 -172.8632 22.4851 -33.5210 -6.8518 -0.0000 0.0000 -0.7274 15.3435 2.5537 0.7004 -7.1250 0.0000 -0.0000 14.2833 -57.3568 175.6171 0.0000 0.0000 0.0000 24.7501 42.7353 -31.4445 -124.2599 55.0636 -89.1782 0.0000 -0.0000 -9.2926 -64.6420 12.1800 -23.9973 7.1250 -0.0000 -0.0000 -23.4449 -4.9445 -23.4383
-5.9234 17.8149 2.8499 -10.4426 35.3508 2.7970 0.0000 0.0000 0.0000 5.3608 19.2917 -10.0697 3.9005 12.0269 35.8270 -0.2640 11.1198 2.8052 3.2319 -11.0614 -32.4872 0.0000 0.0000 0.0000 25.0153 27.3695 -21.2880 -2.5476 -9.9240 28.7308 2.2044 25.2936 7.1793 -2.5172 -9.8691 28.5538 -14.5497 -9.7270 2.7546 -2.8681 -13.3945 -1.1152 4.9144 -6.5288 -0.1477 2.1442 21.9889 -6.6929 -11.9850 32.0543 14.5661 -0.8010 14.5016 7.9386 -0.0000 -0.0000 0.0000 162.4338 -42.4083 -172.9702 22.2840 -33.2965 -6.7411 -0.0000 0.0000 -1.0147 14.3836 3.1911 0.8179 -7.1250 0.0000 -0.0000 15.2585 -56.7306 175.5411 -0.0000 -0.0000 0.0000 25.0173 42.8750 -31.5545 -123.6548 55.2547 -88.6815 0.0000 -0.0000 -9.9514 -64.3826 11.9334 -23.3274 7.1250 -0.0000 -0.0000 -23.3887 -5.5749 -23.0667
-5.9209 17.8181 2.8095 -10.5667 36.0073 2.7809 0.0000 0.0000 0.0000 5.1473 19.2990 -10.4224 3.8560 11.9663 35.6128 -0.2846 10.9892 2.0376 3.2658 -11.1134 -32.6634 0.0000 0.0000 0.0000 24.8180 27.0388 -21.6610 -2.5541 -9.9356 28.7685 2.1503 25.0160 6.9988 -2.4618 -9.7681 28.2288 -14.4492 -9.7239 2.9533 -2.7928 -13.4110 -0.9889 4.9638 -6.5466 -0.1230 2.1889 21.9917 -6.7258 -12.0350 32.0633 14.5631 -0.8108 14.5032 7.9597 0.0000 -0.0000 0.0000 162.7612 -42.5678 -173.3515 22.0916 -33.0804 -6.6358 -0.0000 0.0000 -1.2543 13.5215 3.7432 0.8994 -7.1250 0.0000 -0.0000 16.1217 -56.1981 175.4896 0.0000 -0.0000 0.0000 25.5589 43.2008 -31.2861 -123.0096 55.4531 -88.1508 0.0000 -0.0000 -10.6098 -64.2946 11.9096 -23.2047 7.1250 -0.0000 -0.0000 -23.3507 -5.6789 -22.9710
